<svg xmlns="http://www.w3.org/2000/svg" viewBox="0 0 95 60" style="enable-background:new 0 0 95 60" xml:space="preserve">
  <path d="M42.1 45.8c11.3-2.6 23.2-9.1 31.8-16.9 4.9-4.4 8.9-9.7 12.4-15.2 1.8-2.9 3.5-5.8 5.1-8.8C91.9 4 93 .1 94 0c3.4-.2-3.4 13-4.2 14.4-3.5 5.8-7.4 11.5-12.3 16.3-8.2 8-18.8 15.3-29.8 18.6-6.4 2-12.8 4-19.6 4.6-2.8.2-5.7.2-8.6-.1-2-.2-4.1-.5-6-1-1.5-.3-3.1-1.5-4.6-1.6.8 2.4 3.8 4.2 4.8 6.6 1.2 2.9-1.4 2.4-3 1.1-2.6-2.1-4.8-4.5-7.2-6.9-2-2-5-4.1-3.1-7 1.7-2.5 4.4-4.5 6.5-6.6 1.4-1.4 3.8-5.2 6.2-4.8 7.4 1.2-6.3 10.2-6.9 11.3 1.1.5 2.5.4 3.6.7 1.7.4 3.3 1.1 5 1.5 3.2.8 6.5 1.2 9.8 1.4 5.8.3 12.2-.7 17.5-2.7 4.1-.9-.8.3 0 0z" style="fill:#231f20"/>
</svg>
